<?xml version="1.0" encoding="UTF-8" standalone="no"?>
<!-- Created with Inkscape (http://www.inkscape.org/) -->

<svg
   width="236.2744mm"
   height="249.47292mm"
   viewBox="0 0 236.2744 249.47292"
   version="1.1"
   id="svg1"
   inkscape:version="1.4.2 (f4327f4, 2025-05-13)"
   sodipodi:docname="logo.svg"
   xmlns:inkscape="http://www.inkscape.org/namespaces/inkscape"
   xmlns:sodipodi="http://sodipodi.sourceforge.net/DTD/sodipodi-0.dtd"
   xmlns="http://www.w3.org/2000/svg"
   xmlns:svg="http://www.w3.org/2000/svg">
  <sodipodi:namedview
     id="namedview1"
     pagecolor="#ffffff"
     bordercolor="#000000"
     borderopacity="0.25"
     inkscape:showpageshadow="2"
     inkscape:pageopacity="0.0"
     inkscape:pagecheckerboard="0"
     inkscape:deskcolor="#d1d1d1"
     inkscape:document-units="mm"
     inkscape:zoom="0.71891835"
     inkscape:cx="-13.909785"
     inkscape:cy="634.98171"
     inkscape:window-width="1920"
     inkscape:window-height="1009"
     inkscape:window-x="-8"
     inkscape:window-y="-8"
     inkscape:window-maximized="1"
     inkscape:current-layer="layer1" />
  <defs
     id="defs1" />
  <g
     inkscape:label="Calque 1"
     inkscape:groupmode="layer"
     id="layer1"
     transform="translate(-108.47917,19.57917)">
    <path
       style="fill:#c0f97f;fill-opacity:1;stroke-width:2.39393"
       d="m 198.6502,229.12751 c -1.92197,-0.9805 -2.2656,-1.9599 -1.09752,-3.1281 0.60813,-0.6081 0.72106,-1.2453 0.34103,-1.9245 -0.38285,-0.684 -0.26012,-1.3234 0.37655,-1.9599 0.83501,-0.835 0.83593,-1.1536 0.006,-2.7412 -1.25082,-2.3983 -1.19415,-2.9271 0.48041,-4.484 1.18366,-1.1005 2.20331,-1.3189 6.01727,-1.2889 4.27212,0.035 6.09429,0.8521 3.44138,1.5459 -0.85824,0.2244 -1.08378,0.7569 -0.88741,2.0948 0.36379,2.4786 -1.69798,4.453 -4.64988,4.453 -1.34156,0 -2.09578,0.256 -1.86281,0.6334 0.21524,0.3483 1.76486,0.6334 3.4435,0.6334 3.51421,0 4.81923,1.0715 4.21878,3.4637 -0.74316,2.9612 -6.31813,4.4938 -9.82914,2.7024 z m 6.15725,-1.8591 c 1.30942,-1.3095 0.84538,-1.7734 -1.77349,-1.7734 -2.11133,0 -2.53359,0.2117 -2.53359,1.2667 0,0.9653 0.42226,1.2668 1.77349,1.2668 0.97544,0 2.11557,-0.342 2.53359,-0.7601 z m -0.77584,-9.0214 c 0.48323,-1.9254 -0.0724,-2.8863 -1.66843,-2.8863 -0.92767,0 -1.22942,0.4403 -1.22942,1.7946 0,2.9909 2.21203,3.8241 2.89785,1.0917 z m -76.73961,7.3007 c -0.5892,-0.5859 -0.2086,-1.3195 0.68475,-1.3195 0.52258,0 0.96368,-0.2845 0.98027,-0.6334 0.0158,-0.3483 0.0439,-2.9644 0.0604,-5.813 0.0253,-4.4135 -0.1299,-5.2031 -1.05148,-5.3383 -0.62185,-0.092 -1.21738,0.3603 -1.40098,1.0626 -0.54072,2.0677 -2.07176,1.4488 -2.07195,-0.8373 l -1.9e-4,-2.0585 6.49247,0.1075 c 6.36876,0.1043 6.4961,0.1359 6.68378,1.6473 0.18616,1.5007 0.31574,1.5351 4.94831,1.3268 l 4.75699,-0.2149 -0.19785,2.0449 c -0.20576,2.1274 -2.41472,3.4707 -2.41472,1.4684 0,-0.548 -0.42757,-0.9965 -0.95012,-0.9965 -0.71572,0 -0.95008,0.7684 -0.95008,3.1151 0,3.9612 0.45702,5.119 2.02071,5.119 0.72025,0 1.13953,0.3363 0.98738,0.7917 -0.38247,1.1451 -7.94891,1.0816 -8.39165,-0.07 -0.21271,-0.5538 -0.006,-0.738 0.57349,-0.5149 1.20531,0.4624 1.64309,-0.872 1.64309,-5.0086 0,-2.6284 -0.22251,-3.4319 -0.95006,-3.4319 -0.52257,0 -0.95011,-0.2528 -0.95011,-0.5594 0,-0.3066 -0.57005,-0.7086 -1.26678,-0.891 -0.69673,-0.1833 -1.26678,-0.8062 -1.26678,-1.3868 0,-0.6641 -0.41136,-0.9773 -1.10843,-0.8439 -0.93684,0.1801 -1.13672,1.0632 -1.29096,5.7115 -0.16783,5.0564 -0.074,5.558 1.16267,6.2198 0.73987,0.3961 1.17098,0.8942 0.95805,1.1072 -0.43377,0.4336 -7.2758,0.6084 -7.69012,0.196 z m 21.65798,-0.2402 c -0.78741,-0.5758 -1.05907,-1.4712 -0.91282,-3.0086 0.19185,-2.0187 0.42975,-2.2424 3.0585,-2.8758 2.40183,-0.579 2.85026,-0.9277 2.85026,-2.2169 0,-2.0594 -2.54876,-2.5279 -3.16632,-0.5819 -0.55722,1.7558 -1.84884,1.2893 -2.09325,-0.7557 -0.21113,-1.7674 1.00587,-2.3847 4.73272,-2.4008 3.71927,0 4.01052,0.3537 4.01052,5.0905 0,3.7147 0.19375,4.466 1.36394,5.2856 l 1.3639,0.9551 -1.72753,0.7873 c -1.33666,0.6087 -1.99885,0.6176 -2.92649,0.038 -0.84063,-0.5249 -1.69065,-0.5619 -2.84456,-0.1232 -2.11285,0.8031 -2.36286,0.7901 -3.70887,-0.1928 z m 4.92817,-2.0825 c 0.63589,-1.6568 0.4368,-2.7984 -0.48806,-2.7984 -1.27945,0 -2.37667,1.5822 -1.9209,2.77 0.50469,1.3154 1.90883,1.3318 2.40896,0.032 z m 8.85624,2.2921 c -2.51795,-1.0424 -3.50754,-6.2631 -1.80962,-9.5464 0.97565,-1.8869 2.55376,-2.5787 5.31674,-2.3316 1.18587,0.1075 1.55263,-0.1896 1.63841,-1.3214 0.0661,-0.872 -0.37883,-1.72 -1.1071,-2.1097 -1.40215,-0.7504 -1.21899,-1.112 0.75595,-1.4925 0.7717,-0.1485 1.9504,-0.4437 2.61931,-0.6561 1.15489,-0.3667 1.21618,0 1.21618,7.5065 0,8.2141 0.14981,8.661 2.90205,8.661 1.41552,0 1.26795,-7.9565 -0.15771,-8.5036 -1.47861,-0.5674 -0.37397,-1.4438 2.48115,-1.9685 l 2.37525,-0.4365 v 5.4543 c 0,4.4262 0.1792,5.4543 0.95008,5.4543 0.9395,0 1.39207,1.2374 0.47504,1.2987 -1.26115,0.085 -11.35986,0.032 -12.19284,-0.079 -0.52255,-0.063 -1.66265,0.054 -2.53356,0.2592 -0.87094,0.2023 -2.18914,0.1201 -2.92933,-0.1865 z m 4.54292,-1.9722 c 0.23199,-0.3752 0.43247,-2.2991 0.44578,-4.2754 0.0221,-3.3395 -0.0793,-3.5933 -1.43986,-3.5933 -1.04875,0 -1.63584,0.5155 -2.06967,1.8167 -1.14092,3.4229 1.48404,8.608 3.06375,6.052 z m 14.5003,2.0168 c -0.60074,-0.6006 -0.23168,-1.3348 0.67103,-1.3348 0.74547,0 0.95012,-0.872 0.95012,-4.0491 0,-3.0152 -0.24274,-4.1426 -0.95012,-4.4141 -1.73389,-0.6653 -0.98495,-1.5035 1.73146,-1.9378 1.6335,-0.2623 2.76516,-0.177 2.89545,0.2118 0.14064,0.421 0.59897,0.4011 1.3347,-0.057 0.65083,-0.4065 2.06338,-0.5231 3.36872,-0.2781 2.59999,0.4876 2.99921,1.3998 3.01223,6.8825 0.006,2.8968 0.21366,3.642 1.0115,3.642 0.55159,0 0.89882,0.3129 0.77167,0.6938 -0.2478,0.7437 -6.77291,1.1969 -7.20339,0.5003 -0.14159,-0.2307 0.16657,-0.7693 0.68538,-1.1998 1.09285,-0.9071 1.34185,-7.9072 0.30406,-8.5485 -0.3515,-0.2181 -1.20657,-0.2149 -1.9002,0 -1.08704,0.3451 -1.26113,0.9627 -1.26113,4.4745 0,2.5032 0.26455,4.0744 0.68618,4.0744 0.37741,0 0.57956,0.3201 0.44922,0.7111 -0.22409,0.6723 -5.96237,1.2181 -6.55688,0.6236 z m 35.95905,-0.3888 c -3.88887,-1.6897 -5.25204,-9.4111 -2.20024,-12.463 1.52652,-1.5266 5.28204,-2.4327 8.15214,-1.9668 1.8612,0.3034 2.14759,0.5907 2.14759,2.1656 0,2.104 -1.56906,2.5187 -2.08371,0.5506 -0.39514,-1.5111 -2.78021,-1.7014 -4.60424,-0.3676 -0.98704,0.7216 -1.22949,1.6695 -1.22949,4.8064 0,3.342 0.21619,4.0826 1.4953,5.118 1.93427,1.5664 3.69783,1.543 4.20524,-0.057 0.62416,-1.9666 2.2169,-1.5683 2.2169,0.5544 0,1.5329 -0.31322,1.8837 -1.97935,2.2168 -2.79102,0.5582 -3.75194,0.4706 -6.12014,-0.5585 z m 10.45703,-0.158 c -0.59992,-0.6628 -1.09076,-1.7798 -1.09076,-2.4824 0,-1.4665 1.99995,-3.5137 3.26328,-3.3405 2.43602,0.3341 3.07064,-0.066 3.07064,-1.9333 0,-2.3531 -1.89327,-2.6227 -3.33714,-0.4751 -1.09184,1.6243 -1.4561,1.47 -2.04167,-0.8628 -0.37011,-1.4748 -0.19691,-1.6957 1.61119,-2.0573 6.05235,-1.2105 7.16735,-0.4105 7.56799,5.4297 0.30437,4.435 0.38294,4.624 2.00286,4.8114 1.65487,0.1928 1.69015,0.1201 1.9002,-3.928 0.18205,-3.5026 0.0474,-4.166 -0.89442,-4.411 -0.60966,-0.158 -1.10844,-0.5825 -1.10844,-0.9419 0,-0.3593 0.49878,-0.6735 1.10844,-0.6985 0.60962,-0.032 2.88985,-0.1422 5.06714,-0.2591 4.11609,-0.2244 4.28408,-0.1012 3.5595,2.6024 -0.43411,1.6198 -1.81742,1.898 -2.36342,0.4751 -0.86165,-2.2453 -1.67112,-0.7115 -1.67112,3.1669 0,4.0048 0.0449,4.1171 1.63626,4.1171 0.95934,0 1.53499,0.3034 1.3915,0.7345 -0.2124,0.6372 -5.95418,0.842 -14.11217,0.5032 -0.69673,-0.032 -1.98731,0.1295 -2.86795,0.352 -1.1389,0.2877 -1.91607,0.057 -2.69191,-0.8009 z m 5.12692,-2.8961 c 0.1103,-0.9311 0.0623,-1.6932 -0.10652,-1.6932 -1.14386,0 -2.31076,0.9406 -2.31076,1.8626 0,2.561 2.11158,2.4131 2.41731,-0.1707 z m 18.45736,2.8458 c -1.09079,-0.8831 -1.50487,-2.0105 -1.72829,-4.7046 -0.26518,-3.1963 -0.12801,-3.7087 1.40057,-5.2375 1.33761,-1.3375 2.15355,-1.6406 3.87499,-1.4396 2.0265,0.237 2.18061,0.1296 2.18061,-1.5184 0,-1.1953 -0.32681,-1.7731 -1.0029,-1.7731 -1.38445,0 -0.79091,-1.4318 0.6833,-1.6483 0.65734,-0.098 1.85323,-0.3404 2.65755,-0.5423 l 1.46242,-0.367 v 8.2461 c 0,6.9075 0.15424,8.2461 0.95008,8.2461 0.52255,0 0.95009,0.2781 0.95009,0.6213 0,0.9843 -2.92058,1.4555 -4.33328,0.6995 -0.88065,-0.4716 -1.80804,-0.4883 -2.95051,-0.054 -2.23387,0.8492 -2.4828,0.8173 -4.14463,-0.5282 z m 5.72788,-5.8279 c 0,-3.2159 -0.16973,-3.7782 -1.1401,-3.7782 -1.78408,0 -2.66027,1.3073 -2.66027,3.9688 0,3.489 0.97113,5.1016 2.56017,4.2511 1.01855,-0.5449 1.2402,-1.3389 1.2402,-4.4417 z m 14.13401,6.0624 c -2.53087,-1.1005 -3.99971,-3.8758 -3.99971,-7.5567 0,-4.0289 1.94502,-6.1626 6.07065,-6.6595 5.29164,-0.6371 6.59723,-0.2654 6.59723,1.8841 0,2.1552 -1.58625,2.5784 -2.21689,0.5913 -0.57166,-1.8009 -3.19122,-1.6166 -5.17199,0.3642 -1.43802,1.4377 -1.59396,2.0133 -1.31962,4.8683 0.22503,2.3429 0.70321,3.5554 1.72968,4.3866 2.02764,1.6419 2.99416,1.4248 3.31243,-0.744 0.20955,-1.4283 -0.003,-1.9827 -0.87818,-2.2595 -2.44468,-0.776 -0.99069,-1.5819 2.65642,-1.4723 3.52571,0.1075 3.74006,0.196 2.85028,1.1774 -0.52918,0.5847 -0.96213,1.9741 -0.96213,3.0876 0,1.5901 -0.34845,2.1568 -1.62475,2.642 -2.21831,0.8435 -4.63724,0.737 -7.04342,-0.3098 z m 12.19705,-0.069 c -1.41445,-1.4144 -1.2316,-3.8345 0.37472,-4.9593 0.75349,-0.5279 1.58888,-0.8247 1.85639,-0.659 0.26739,0.1643 0.65776,0.032 0.86715,-0.3161 0.20955,-0.3391 0.82189,-0.4469 1.36103,-0.2402 0.77,0.2939 0.93549,0 0.77145,-1.4529 -0.26581,-2.3288 -2.69807,-2.9612 -3.25137,-0.8455 -0.47438,1.8142 -1.9728,1.2544 -2.22072,-0.8297 -0.17889,-1.5032 0.0439,-1.6821 2.53356,-2.031 3.22593,-0.452 5.60515,-0.047 6.3155,1.0705 0.28161,0.4438 0.51623,2.5971 0.52157,4.7852 0.006,2.9457 0.25632,4.0734 0.95982,4.3433 1.52111,0.5838 1.10362,1.3613 -0.97604,1.8183 -1.1181,0.2466 -2.28153,0.1296 -2.77326,-0.2813 -0.59533,-0.4943 -1.35284,-0.5107 -2.54885,-0.057 -2.25429,0.8568 -2.61902,0.8233 -3.79095,-0.3487 z m 5.33861,-3.1894 c 0,-1.7039 -0.2007,-1.7921 -1.94985,-0.8559 -0.9809,0.525 -1.1,0.909 -0.5821,1.8768 0.85938,1.6056 2.53195,0.9314 2.53195,-1.0209 z m 6.33434,3.0389 c -2.2e-4,-0.456 0.26107,-0.6675 0.58083,-0.4699 0.32456,0.1991 0.67419,-1.5873 0.79174,-4.0488 0.18805,-3.9388 0.0787,-4.4423 -1.0286,-4.7305 -1.24747,-0.3246 -0.97082,-1.1448 0.46572,-1.3809 0.42536,-0.07 1.55724,-0.33 2.51526,-0.5781 1.24257,-0.3217 1.74182,-0.2149 1.74182,0.3777 0,0.6445 0.16909,0.6597 0.76007,0.07 0.9199,-0.9201 5.34237,-1.014 5.89163,-0.1265 0.2598,0.4204 0.81901,0.4068 1.65544,-0.041 1.41438,-0.7569 4.2646,-0.6261 5.46918,0.2497 0.50975,0.3711 0.79174,2.2409 0.79174,5.2492 0,3.8408 0.17857,4.673 1.00286,4.673 0.5516,0 0.88865,0.3426 0.74904,0.7617 -0.37769,1.1331 -6.81905,1.2377 -6.81905,0.1106 0,-0.4798 0.28509,-0.8723 0.63339,-0.8723 0.83339,0 0.82805,-8.0391 -0.006,-8.5546 -0.35147,-0.218 -1.1353,-0.237 -1.74183,-0.044 -0.89543,0.2844 -1.09493,1.0759 -1.06114,4.2068 0.0284,2.592 0.33341,4.0364 0.93175,4.4062 1.75133,1.0822 -0.19248,1.5317 -6.70745,1.5503 -5.03937,0.032 -6.61649,-0.1802 -6.61674,-0.8104 z m 8.73638,-5.447 c -0.17573,-3.6435 -0.27402,-3.8582 -1.76944,-3.8582 -1.51211,0 -1.59185,0.1897 -1.7696,4.2236 -0.16025,3.6338 -0.0285,4.2593 0.95011,4.4789 2.12322,0.4773 2.78568,-0.7623 2.58893,-4.8443 z m 15.85074,5.6544 c -1.96067,-1.1043 -2.57977,-2.642 -2.5297,-6.2837 0.0515,-3.7472 2.42154,-5.7071 6.36395,-5.2627 3.20579,0.3616 4.67169,1.7829 4.38325,4.2501 -0.16814,1.4365 -0.49543,1.6021 -3.51051,1.7756 -3.48557,0.1991 -4.00985,0.8297 -2.71226,3.2542 0.48456,0.9055 1.23524,1.104 3.58071,0.9472 2.65142,-0.177 2.8653,-0.095 2.0076,0.7618 -1.39295,1.3928 -5.55616,1.6988 -7.58304,0.5575 z m 4.42396,-8.1664 c -0.12263,-0.8597 -0.6497,-1.3462 -1.45882,-1.3462 -0.80912,0 -1.33619,0.4865 -1.45882,1.3462 -0.15361,1.0771 0.1378,1.3458 1.45882,1.3458 1.32117,0 1.61249,-0.2687 1.45882,-1.3458 z m -148.57775,-5.5713 c -1.23129,-1.2314 -0.90903,-2.8771 0.6428,-3.2829 1.94474,-0.5086 3.56415,1.1071 2.61707,2.6113 -0.87537,1.39 -2.25685,1.6745 -3.25987,0.6716 z m -48.2831,-15.165 c -9.41545,-1.1618 -16.87661,-6.6714 -18.73468,-13.8344 -0.78267,-3.0171 -0.55782,-5.3724 0.84945,-8.8971 1.09642,-2.7463 6.59639,-7.3134 10.6332,-8.8296 6.16458,-2.3157 16.70515,-2.5509 19.59529,-0.4377 1.88642,1.3793 0.60956,3.1755 -5.40619,7.6038 -9.18956,6.7654 -9.18576,8.303 0.0379,15.2883 4.18799,3.1717 6.32621,5.2059 6.32621,6.0182 0,2.5345 -6.17387,3.9681 -13.30127,3.0885 z m 17.76721,-1.6147 c -2.04107,-2.5949 -2.24951,-4.1158 -2.24303,-16.3655 0.003,-9.6908 0.17383,-11.7098 1.12471,-13.4595 1.82036,-3.3496 6.20175,-2.5958 8.73512,1.5032 2.285,3.6973 5.03484,6.5725 6.28566,6.5725 1.21972,0 3.5205,-2.428 6.79595,-7.1717 1.75083,-2.5358 2.35255,-2.9625 4.17724,-2.9625 2.87526,0 4.13812,1.5765 4.87694,6.088 0.78909,4.8184 0.78337,15.3436 -0.0126,20.1945 -0.80896,4.9404 -2.30602,6.9708 -5.13981,6.9708 -1.94546,0 -2.40347,-0.3891 -4.84559,-4.1171 -3.01091,-4.5961 -4.20679,-5.7005 -6.17302,-5.7005 -1.53847,0 -4.1261,2.5377 -5.63243,5.5239 -2.35002,4.6584 -5.63587,5.8667 -7.95077,2.9239 z m 40.20962,0.7566 c -2.01935,-0.542 -3.77695,-1.5506 -4.9088,-2.8174 l -1.76312,-1.9735 v -11.3427 c 0,-11.2028 0.019,-11.3659 1.59826,-13.2421 2.05586,-2.4431 5.78408,-3.2649 14.81468,-3.2649 8.06754,0 13.2191,0.8477 14.80839,2.4372 1.10262,1.1024 1.10278,1.1934 0.006,2.4577 -0.62701,0.7222 -3.48852,2.0765 -6.35893,3.0095 -2.87042,0.9327 -5.35606,1.9182 -5.52374,2.1894 -0.16751,0.2718 1.88383,1.348 4.55886,2.3926 7.81636,3.0525 7.86301,4.6799 0.22251,7.7596 -5.00849,2.019 -6.65644,3.752 -3.69787,3.8889 2.55976,0.1201 10.80346,3.3894 11.50658,4.5658 0.95305,1.5945 -1.23205,3.2975 -5.36947,4.185 -4.34649,0.9321 -16.04201,0.7876 -19.89213,-0.2465 z m 38.29903,-0.063 c -8.31757,-2.287 -10.29243,-5.3073 -10.6558,-16.2975 -0.42584,-12.8798 0.51243,-15.452 5.9464,-16.3012 5.85692,-0.9153 9.35252,2.2064 11.37083,10.1548 1.74207,6.8604 4.07187,9.686 10.63292,12.896 1.95222,0.9551 4.28647,2.6125 5.18722,3.683 1.4695,1.7463 1.54716,2.0845 0.75618,3.2928 -1.67706,2.562 -4.1037,3.2387 -12.15334,3.3885 -5.22101,0.098 -8.69144,-0.158 -11.08441,-0.8164 z m 35.47007,-0.032 c -8.52402,-2.2829 -10.3222,-5.1936 -10.65887,-17.2526 -0.33597,-12.0341 0.84974,-14.7149 6.8585,-15.5067 4.9784,-0.6558 8.62854,3.001 10.49663,10.5157 1.51144,6.0801 3.61209,8.6336 10.32097,12.5468 6.41907,3.7441 7.63727,5.3642 5.79475,7.7065 -0.65479,0.8325 -2.31178,1.8496 -3.68226,2.2602 -3.42997,1.0275 -14.8887,0.866 -19.12972,-0.2686 z m 32.16595,-0.092 c -1.61416,-1.8505 -2.40682,-3.782 -3.10759,-7.5728 -0.75062,-4.0605 -2.70521,-8.2448 -6.39012,-13.6792 -3.14094,-4.6322 -4.46787,-7.7818 -3.95686,-9.3918 0.44828,-1.4125 2.72061,-2.489 4.49786,-2.1309 0.64704,0.1296 1.9967,0.4112 2.99925,0.6242 1.00255,0.2118 3.45741,1.9466 5.45524,3.8522 3.95565,3.7728 4.68452,3.8645 6.90148,0.8657 2.16765,-2.9318 6.1764,-5.1598 9.37546,-5.21 5.82839,-0.092 5.90399,2.6824 0.31069,11.4054 -4.25392,6.6342 -5.3535,9.1045 -6.70435,15.0617 -0.71452,3.1508 -1.47443,4.8462 -2.62642,5.8588 -1.96901,1.7311 -5.38135,1.891 -6.75467,0.3167 z m 25.94758,0.2497 c -7.79572,-2.1944 -7.37532,-5.9954 1.71344,-15.4921 2.10602,-2.2004 4.18963,-4.6856 4.63022,-5.5226 0.71174,-1.3521 0.6411,-1.6252 -0.63339,-2.4498 -0.78895,-0.5101 -2.28956,-1.1302 -3.33468,-1.3774 -2.79352,-0.6605 -6.44256,-2.6141 -6.8457,-3.6647 -1.17151,-3.0529 7.34347,-5.2147 18.24678,-4.6326 8.36586,0.4466 11.38824,1.2352 12.76055,3.3298 0.96023,1.4655 0.94898,1.756 -0.16435,4.2441 -0.65728,1.4687 -3.22058,4.8085 -5.69618,7.4211 -7.01681,7.4057 -7.23284,8.5005 -2.00026,10.1371 5.91088,1.8486 8.17543,3.154 7.96607,4.5911 -0.10967,0.7535 -1.17243,1.9267 -2.38504,2.6331 -1.88114,1.0958 -3.52024,1.2987 -11.7178,1.452 -6.53245,0.1233 -10.47729,-0.089 -12.53969,-0.6691 z m -152.81078,-47.9492 c -1.04778,-0.3066 -3.72979,-2.025 -5.96012,-3.8222 -6.52085,-5.2545 -8.7654,-5.3373 -14.9674,-0.5524 -4.37934,3.3783 -7.15238,4.4112 -11.82543,4.404 -6.98644,0 -12.53327,-3.6499 -15.92128,-10.445 -2.04802,-4.1075 -3.9315,-11.3883 -5.22145,-20.1843 -1.44794,-9.8735 -0.96968,-28.4675 0.97158,-37.7711 4.49422,-21.5394 14.74347,-40.1207 31.13237,-56.4412 l 4.20369,-4.18596 0.457,-7.21508 c 0.9515,-15.0231 3.45191,-24.68166 7.42314,-28.67448 2.24152,-2.25352 2.66074,-2.42831 5.05119,-2.10782 3.25257,0.43617 6.85082,3.73744 9.46339,8.68256 1.01229,1.91597 2.49392,4.62368 3.29255,6.0172 0.7986,1.39352 1.80396,3.16727 2.23409,3.94162 l 0.78203,1.40774 2.04095,-1.24118 c 1.12256,-0.68269 4.89328,-2.1527 8.37942,-3.26682 5.48151,-1.75193 6.83574,-2.48109 10.01656,-5.39234 3.37005,-3.08446 4.30971,-3.65527 5.66445,-3.4413 0.26138,0.0411 0.47507,-0.15803 0.47507,-0.44312 0,-0.91658 8.3542,-3.22131 15.28271,-4.21596 9.25823,-1.32936 20.49075,-1.11791 29.05485,0.54648 0.87091,0.17067 3.29366,0.59862 5.38388,0.95387 14.53224,2.47098 28.80807,10.70536 31.38177,18.10123 0.50036,1.43809 2.03866,2.75765 6.15263,5.27856 4.99038,3.05791 5.62184,3.28832 6.99722,2.55221 2.7695,-1.48233 8.16835,-7.973 11.09001,-13.33279 3.06953,-5.63097 4.26956,-7.04504 6.78068,-7.98912 2.20564,-0.82934 4.75785,0.6217 6.23582,3.54528 0.65675,1.29933 1.86954,5.21251 2.6951,8.69615 1.27964,5.39993 1.50145,7.96857 1.50405,17.41853 0.002,6.57884 -0.34653,13.02874 -0.85691,15.86794 l -0.85995,4.7836 2.83755,4.4005 c 10.74891,16.6701 16.30283,36.1093 16.29888,57.0481 -0.003,29.9226 -7.41777,46.2969 -21.5367,47.5772 -4.40696,0.3995 -7.75947,-0.9349 -12.93003,-5.1461 -3.15955,-2.5737 -3.94737,-2.9198 -6.64623,-2.9198 -2.76255,0 -3.46487,0.3306 -7.18644,3.3809 -4.7851,3.9224 -8.41928,5.1907 -13.39992,4.6768 -4.08894,-0.4223 -6.06199,-1.3837 -10.05042,-4.898 -5.04578,-4.4461 -8.86594,-4.4442 -13.92329,0 -3.94996,3.4767 -7.62921,5.039 -11.86787,5.039 -4.28546,0 -7.47267,-1.3885 -11.91992,-5.1933 -1.85302,-1.585 -4.2012,-3.0041 -5.21813,-3.1533 -2.68227,-0.3938 -5.9228,0.921 -8.90099,3.6116 -7.19182,6.4973 -15.34968,6.3933 -23.284,-0.2971 -5.41478,-4.5658 -8.70196,-4.5566 -13.8742,0.038 -1.64583,1.4624 -4.13255,3.184 -5.52601,3.8262 -2.70056,1.2444 -8.0858,1.4931 -11.40594,0.5263 z m 45.30992,-6.7271 c 0.86134,-0.5841 2.62209,-1.9969 3.91277,-3.1394 1.29067,-1.1426 3.47855,-2.655 4.86192,-3.3607 3.08124,-1.5721 9.10991,-2.3699 11.03183,-1.4599 0.76714,0.3631 2.28032,0.9915 3.36265,1.3966 1.08229,0.4052 3.21998,1.8711 4.75042,3.2574 5.18119,4.6938 7.87328,4.9163 12.61387,1.0427 6.06882,-4.959 8.22057,-5.8526 13.92102,-5.7811 4.25395,0.054 7.51417,1.3771 10.73244,4.3572 6.12426,5.6711 8.18505,5.624 15.06384,-0.3454 3.66617,-3.1815 8.56375,-4.6594 13.53032,-4.0829 3.37179,0.3912 4.30285,0.8296 7.61547,3.5863 4.94711,4.1171 7.29776,5.0946 10.2746,4.2729 3.38949,-0.9359 5.88505,-3.3765 7.93112,-7.7562 3.95347,-8.4626 5.4486,-19.0573 4.97505,-35.2549 -0.3667,-12.5417 -1.54463,-19.3595 -5.2048,-30.1249 -1.74713,-5.1385 -9.77044,-21.35 -10.41392,-21.0415 -4.64217,2.225 -6.65593,2.5945 -10.52397,1.932 -11.72611,-2.0085 -20.28291,-10.8017 -21.00006,-21.5801 -0.24115,-3.6249 -0.0509,-4.7008 1.29106,-7.307 l 1.57389,-3.05604 -3.47735,-2.22445 -3.47735,-2.22445 -2.75699,2.87712 c -3.4318,3.58162 -8.4365,6.13922 -15.81663,8.08302 -5.15204,1.3568 -6.98046,1.4984 -19.00184,1.4734 -14.64044,-0.032 -21.11189,-0.9905 -31.86434,-4.7264 C 203.5877,16.03485 194.8053,9.62004 192.86003,4.24034 c -0.46654,-1.29017 -1.0852,-2.34582 -1.37484,-2.34582 -0.55444,0 -10.75799,3.8212 -11.1848,4.18847 -0.43939,0.37832 2.68704,2.65492 6.15738,4.48366 4.19109,2.20865 8.49137,6.26436 10.20642,9.62636 5.35948,10.5053 -6.06635,25.3362 -21.52851,27.9443 -7.44505,1.2557 -13.89488,-0.7411 -19.58489,-6.0636 -2.97333,-2.7811 -6.04843,-8.0833 -6.7645,-11.6637 -0.2105,-1.0522 -0.60337,-1.9128 -0.87322,-1.9128 -0.77489,0 -6.5175,6.5039 -11.06861,12.5363 -4.28069,5.674 -11.81897,20.0532 -14.23136,27.1466 -3.15692,9.2825 -4.53581,17.2782 -4.89878,28.4068 -0.37592,11.5249 0.20766,18.1328 2.46115,27.8695 1.77684,7.6771 3.60157,11.5713 6.75205,14.4096 4.01362,3.616 6.85015,3.1789 13.50479,-2.0813 3.78987,-2.9956 6.74067,-4.0127 11.61341,-4.0023 4.38932,0 7.0433,1.1501 10.76772,4.6294 4.92362,4.5993 9.19739,4.9008 13.02507,0.9188 6.74863,-7.0211 16.25358,-7.8036 23.14761,-1.9059 3.64205,3.1157 7.25221,5.4499 8.42904,5.4499 0.57062,0 1.7422,-0.4779 2.60353,-1.062 z m 86.92932,-15.7105 c -11.27778,-3.1654 -18.23119,-15.1546 -15.07863,-25.999 1.90728,-6.5609 5.66499,-10.8185 12.09149,-13.7001 4.71575,-2.1144 12.59456,-1.9308 17.51992,0.4081 4.2007,1.9949 7.81279,5.6502 10.02314,10.1424 2.25618,4.5858 2.20865,12.4633 -0.10525,17.4185 -4.37099,9.3606 -14.89862,14.4109 -24.45073,11.7301 z m 10.44325,-7.723 c 1.37455,-0.5338 1.29336,-0.6912 -2.06563,-4.0086 l -3.49641,-3.453 -3.28807,3.288 c -1.80841,1.8085 -3.09649,3.4798 -2.86235,3.7137 0.2342,0.2339 1.93073,0.7693 3.77021,1.1894 3.15393,0.7199 4.53699,0.5929 7.94225,-0.7295 z m -11.34134,-12.5581 c 0.019,-0.3483 -1.36245,-1.8556 -3.0716,-3.3494 l -3.10746,-2.7162 -0.73048,2.7128 c -0.55602,2.0648 -0.55049,3.5168 0.0253,6.0801 l 0.75359,3.3676 3.04842,-2.7308 c 1.67665,-1.5019 3.06461,-3.0155 3.0844,-3.3641 z m 19.12356,3.7134 c 0.83045,-2.5165 0.42627,-8.2619 -0.65741,-9.3457 -0.46082,-0.4608 -1.6403,0.3161 -3.87683,2.5522 l -3.21454,3.2147 3.06824,2.9267 c 1.68755,1.6098 3.25993,2.9334 3.4942,2.9413 0.23452,0 0.76809,-1.0221 1.18634,-2.2892 z m -6.43105,-15.5275 c 0.11251,-0.6805 -3.75774,-1.8041 -6.20179,-1.8003 -2.61298,0 -7.03116,1.1103 -7.03116,1.7601 0,0.2402 1.48483,1.7813 3.29963,3.4236 l 3.29963,2.9862 3.28266,-2.9783 c 1.80548,-1.6378 3.31345,-3.1641 3.35103,-3.3913 z m -58.88602,30.548 c -2.52351,-2.5234 -2.48906,-5.1003 0.0973,-7.2763 1.07183,-0.9021 2.35445,-1.6755 2.85026,-1.7191 0.49584,-0.044 1.2578,-0.1043 1.69324,-0.1359 1.98392,-0.1391 4.9278,0.921 6.12713,2.2083 3.45589,3.7096 0.13748,8.7736 -5.7494,8.7736 -2.65594,0 -3.46592,-0.2971 -5.01854,-1.8515 z m -62.09845,-2.8233 c -5.65926,-2.0222 -9.75266,-5.8109 -12.40069,-11.4766 -1.49526,-3.1995 -1.77122,-4.6019 -1.74508,-8.8678 0.037,-6.0564 1.39466,-9.5672 5.36507,-13.8745 4.05003,-4.3939 8.42516,-6.265 14.76307,-6.3137 5.72585,-0.044 6.98811,0.2086 10.8027,2.1695 9.0271,4.6389 13.01398,14.5341 9.93714,24.664 -1.16769,3.8445 -1.95229,5.1369 -4.99072,8.222 -2.62541,2.6657 -4.6015,4.026 -7.27099,5.0061 -4.21173,1.5459 -10.84765,1.7621 -14.4605,0.471 z m 11.74308,-7.3011 1.85096,-0.7437 -3.0939,-3.141 c -1.70169,-1.7276 -3.38971,-3.1347 -3.75116,-3.1265 -0.62502,0.032 -6.67446,5.4676 -6.67446,6.0172 0,0.1422 0.78384,0.7032 1.74186,1.2431 1.95247,1.0999 6.876,0.9763 9.9267,-0.2497 z m -13.5674,-9.8776 2.79864,-2.8515 -3.10964,-3.1571 c -3.4058,-3.4578 -3.81842,-3.3667 -4.47722,0.988 -0.39211,2.592 0.62239,7.8725 1.51249,7.8725 0.26233,0 1.73648,-1.2836 3.27573,-2.8519 z m 21.55886,0.5598 c 0.84322,-2.5551 0.50137,-7.5697 -0.59053,-8.6614 -0.52302,-0.5231 -1.5276,0.098 -3.83014,2.3651 l -3.12119,3.0743 2.96679,2.7318 c 1.63174,1.5025 3.15845,2.7431 3.39274,2.757 0.23421,0.032 0.7663,-1.0064 1.18233,-2.2668 z m -6.50068,-14.8468 c 0.0961,-0.2086 -0.55861,-0.7121 -1.45493,-1.1207 -2.0687,-0.9425 -7.10045,-0.9567 -9.76587,-0.032 l -2.05086,0.7152 3.33869,3.3806 3.3387,3.3806 3.20977,-2.9747 c 1.76534,-1.6363 3.28838,-3.1452 3.3845,-3.3532 z m -21.58361,-49.1382 c 6.04628,-2.8604 10.95786,-9.1561 10.95786,-14.0455 0,-2.704 -3.22896,-6.2145 -8.61214,-9.36277 -6.02349,-3.52252 -10.45099,-8.67813 -15.7226,-18.30856 -6.26916,-11.45253 -7.23777,-11.26764 -9.95114,1.90017 -2.02925,9.84788 -2.04694,23.65256 -0.0373,29.07586 1.70525,4.6019 3.77025,7.3779 7.28919,9.7989 2.98537,2.0541 4.24138,2.3999 9.17979,2.5263 2.45287,0.063 4.32156,-0.3663 6.8963,-1.5844 z m 133.49477,1.2759 c 1.95526,-0.7503 3.41591,-4.9438 4.18552,-12.0164 0.77926,-7.1613 0.45238,-20.12748 -0.61919,-24.56152 -0.95565,-3.95395 -1.63383,-4.06931 -3.97184,-0.67448 -3.1648,4.59555 -6.02614,7.63766 -11.02553,11.72277 -6.28083,5.13223 -7.57779,8.24863 -5.84289,14.03923 1.99186,6.6483 12.19894,13.438 17.27393,11.4904 z M 255.28899,17.65878 c 0.69672,0 3.54698,-0.57176 6.33392,-1.29017 2.78695,-0.71841 5.35218,-1.37013 5.70054,-1.44788 1.46476,-0.32712 5.17926,-2.71529 7.10888,-4.57027 3.09925,-2.97952 2.8605,-5.19733 -0.97205,-9.02991 -8.56586,-8.56593 -31.88756,-14.09165 -51.25193,-12.14344 -15.18166,1.52753 -24.36426,6.42366 -22.29892,11.89028 2.22755,5.89583 12.39724,11.47939 26.72067,14.67068 9.35662,2.08475 13.65169,2.54304 20.74142,2.2137 3.65786,-0.17067 7.22071,-0.30342 7.91747,-0.29394 z M 233.14484,12.6356 c -15.86239,-2.49816 -23.77856,-9.52645 -17.01207,-15.10369 3.25326,-2.68179 9.32164,-3.95521 18.53392,-3.88978 8.19563,0.0569 8.59491,0.10114 15.23842,1.62203 15.231,3.48744 18.33783,12.26829 5.72522,16.18115 -4.82934,1.49845 -16.58039,2.12046 -22.48549,1.19029 z m 18.43035,-5.88667 c 1.67706,-0.39666 4.03046,-1.83222 4.03046,-2.45865 0,-0.9779 -3.11812,-2.43685 -7.95827,-3.72385 -8.54384,-2.27155 -25.17509,-1.56483 -26.06588,1.10748 -0.4355,1.3066 5.14054,3.87904 10.59098,4.88601 5.0374,0.93049 15.82251,1.03574 19.40271,0.18964 z"
       id="path4"
       inkscape:export-filename="logo.png"
       inkscape:export-xdpi="50.907322"
       inkscape:export-ydpi="50.907322" />
  </g>
</svg>
